<svg width="27" height="27" viewBox="0 0 27 27" fill="none" xmlns="http://www.w3.org/2000/svg">
<circle cx="12.9375" cy="12.9375" r="12.9375" fill="#E6F4F2"/>
<path fill-rule="evenodd" clip-rule="evenodd" d="M9.76406 14.8008C9.87849 14.7249 10.0099 14.6785 10.1466 14.6658C10.2483 14.6553 10.3511 14.6674 10.4475 14.7014C10.5439 14.7355 10.6315 14.7905 10.7041 14.8625C10.7754 14.9345 10.8319 15.0198 10.8702 15.1137C10.9085 15.2076 10.9279 15.3081 10.9273 15.4095C10.9273 15.5088 10.9075 15.6071 10.8691 15.6986C10.8306 15.7902 10.7742 15.8731 10.7033 15.9425L9.90373 16.7421C9.88546 16.7606 9.86372 16.7752 9.83976 16.7852C9.8158 16.7952 9.79011 16.8003 9.76415 16.8003C9.7382 16.8003 9.7125 16.7952 9.68854 16.7852C9.66459 16.7752 9.64285 16.7606 9.62458 16.7421L8.82424 15.9425C8.68106 15.7993 8.60064 15.605 8.60064 15.4025C8.60064 15.2 8.68106 15.0057 8.82424 14.8625C9.06792 14.6192 9.4605 14.6017 9.76406 14.8008ZM10.4258 15.6621C10.4261 15.6618 10.4264 15.6615 10.4267 15.6609C10.4604 15.6278 10.4872 15.5884 10.5054 15.5448C10.5235 15.5012 10.5328 15.4544 10.5325 15.4072C10.533 15.358 10.5237 15.3093 10.5052 15.2638C10.4868 15.2182 10.4595 15.1768 10.425 15.1418C10.3932 15.1108 10.3549 15.0873 10.3129 15.073C10.2708 15.0587 10.2261 15.054 10.182 15.0592C10.0765 15.0709 9.97824 15.1185 9.90373 15.1942C9.86665 15.2311 9.81646 15.2518 9.76415 15.2518C9.71184 15.2518 9.66165 15.2311 9.62458 15.1942C9.54214 15.1102 9.43043 15.0614 9.31283 15.058C9.27405 15.057 9.23549 15.064 9.19948 15.0784C9.16347 15.0928 9.13076 15.1144 9.10334 15.1418C9.03422 15.2109 8.9954 15.3047 8.9954 15.4025C8.9954 15.5003 9.03422 15.594 9.10334 15.6632L9.76415 16.3231L10.4249 15.6631C10.4252 15.6626 10.4255 15.6623 10.4258 15.6621ZM17.7696 9H9.50155C9.46657 9 9.43192 9.0069 9.39961 9.0203C9.3673 9.0337 9.33795 9.05334 9.31324 9.07809C9.28853 9.10285 9.26895 9.13223 9.25561 9.16457C9.24227 9.1969 9.23543 9.23155 9.2355 9.26652V12.168H10.6612C10.7224 12.1676 10.782 12.1875 10.8308 12.2246C10.8795 12.2616 10.9146 12.3138 10.9306 12.3729L11.3799 13.9883C11.4565 14.0448 11.5187 14.1184 11.5616 14.2034C11.6044 14.2883 11.6267 14.3821 11.6267 14.4772V14.7228H15.9498V12.7046C15.95 12.5623 16.0066 12.426 16.1072 12.3254C16.2078 12.2248 16.3442 12.1682 16.4865 12.168H18.0356V9.26652C18.0357 9.23155 18.0288 9.1969 18.0155 9.16457C18.0021 9.13223 17.9826 9.10285 17.9578 9.07809C17.9331 9.05334 17.9038 9.0337 17.8715 9.0203C17.8392 9.0069 17.8045 9 17.7696 9ZM14.6253 15.1173H12.6459V15.3094H14.6253V15.1173ZM8.35875 17.1366C8.39882 17.1767 8.45314 17.1993 8.50985 17.1995L11.0182 17.1996C11.0749 17.1994 11.1292 17.1767 11.1693 17.1366C11.2093 17.0964 11.2319 17.0421 11.232 16.9854V14.4772C11.2319 14.4205 11.2093 14.3661 11.1693 14.326C11.1292 14.2859 11.0749 14.2632 11.0182 14.263H8.50985C8.45314 14.2632 8.39882 14.2859 8.35875 14.326C8.31868 14.3661 8.29613 14.4205 8.29601 14.4772V15.2814H8.25683C8.21531 15.2817 8.17554 15.2981 8.14599 15.3273C8.11644 15.3564 8.09944 15.396 8.09863 15.4375V16.0241C8.09935 16.0658 8.11624 16.1057 8.14575 16.1352C8.17526 16.1647 8.21509 16.1816 8.25683 16.1824H8.29601V16.9854C8.29613 17.0421 8.31868 17.0964 8.35875 17.1366ZM8.59099 13.8685L8.95421 12.5626H10.5738L10.937 13.8685H8.59099ZM8.95421 18.9H10.5737L10.937 17.5941H8.59099L8.95421 18.9ZM15.9498 15.9809H11.6266L11.6267 15.1173H12.2511V15.3874C12.2512 15.4714 12.2847 15.5519 12.3441 15.6112C12.4035 15.6706 12.4841 15.7039 12.5681 15.704H14.7031C14.7871 15.7039 14.8676 15.6706 14.927 15.6112C14.9865 15.5519 15.0199 15.4714 15.0201 15.3874V15.1173H15.9498V15.9809ZM19.6416 12.7047V18.758C19.6415 18.7956 19.6265 18.8316 19.5999 18.8583C19.5734 18.8849 19.5373 18.8999 19.4997 18.9H16.4865C16.4488 18.8999 16.4127 18.8849 16.3861 18.8583C16.3595 18.8317 16.3445 18.7956 16.3444 18.758V12.7047C16.3445 12.667 16.3595 12.631 16.3861 12.6043C16.4127 12.5777 16.4488 12.5627 16.4865 12.5627H19.4997C19.5373 12.5628 19.5734 12.5778 19.5999 12.6044C19.6265 12.631 19.6415 12.6671 19.6416 12.7047ZM18.2643 17.8718C18.184 17.8182 18.0896 17.7896 17.9931 17.7896C17.8635 17.7898 17.7394 17.8414 17.6478 17.933C17.5563 18.0247 17.5049 18.1489 17.5049 18.2784C17.5051 18.375 17.5338 18.4693 17.5875 18.5496C17.6412 18.6298 17.7175 18.6923 17.8068 18.7291C17.896 18.766 17.9942 18.7756 18.0888 18.7567C18.1835 18.7378 18.2705 18.6912 18.3387 18.6229C18.4069 18.5546 18.4534 18.4675 18.4721 18.3728C18.4909 18.2781 18.4812 18.18 18.4442 18.0908C18.4072 18.0016 18.3446 17.9254 18.2643 17.8718ZM17.9414 18.3558C17.9567 18.366 17.9747 18.3715 17.9931 18.3716C18.0178 18.3715 18.0415 18.3617 18.0589 18.3443C18.0764 18.3268 18.0863 18.3031 18.0864 18.2784C18.0864 18.26 18.0809 18.242 18.0707 18.2267C18.0605 18.2114 18.0459 18.1995 18.0289 18.1924C18.0119 18.1854 17.9932 18.1835 17.9751 18.1871C17.9571 18.1907 17.9405 18.1995 17.9275 18.2125C17.9144 18.2255 17.9056 18.2421 17.9019 18.2602C17.8983 18.2782 17.9002 18.2969 17.9072 18.3139C17.9142 18.331 17.9261 18.3455 17.9414 18.3558ZM17.8291 13.1029C17.8074 13.0705 17.7957 13.0323 17.7957 12.9933C17.7956 12.9673 17.8006 12.9416 17.8105 12.9176C17.8203 12.8937 17.8348 12.8719 17.8531 12.8535C17.8714 12.8351 17.8932 12.8205 17.9171 12.8105C17.9411 12.8006 17.9667 12.7954 17.9927 12.7954H17.9934C18.0325 12.7955 18.0706 12.8071 18.1031 12.8288C18.1356 12.8505 18.1608 12.8814 18.1758 12.9174C18.1907 12.9535 18.1946 12.9932 18.187 13.0315C18.1794 13.0698 18.1606 13.105 18.133 13.1326C18.1053 13.1603 18.0702 13.1791 18.0319 13.1867C17.9936 13.1944 17.9539 13.1905 17.9178 13.1756C17.8817 13.1606 17.8508 13.1354 17.8291 13.1029Z" fill="url(#paint0_linear_1_42413)"/>
<defs>
<linearGradient id="paint0_linear_1_42413" x1="20.61" y1="20.3143" x2="20.61" y2="30.2142" gradientUnits="userSpaceOnUse">
<stop stop-color="#3BAA90"/>
<stop offset="1" stop-color="#11003C" stop-opacity="0.69"/>
</linearGradient>
</defs>
</svg>
