<svg width="27" height="27" viewBox="0 0 27 27" fill="none" xmlns="http://www.w3.org/2000/svg">
<circle cx="12.9375" cy="12.9375" r="12.9375" fill="#E6F4F2"/>
<path fill-rule="evenodd" clip-rule="evenodd" d="M13.0587 10.2663C13.7191 9.49075 14.7309 9 15.7851 9C17.6511 9 19.1173 10.4662 19.1173 12.3323C19.1173 14.6206 17.0608 16.4854 13.9448 19.3109L13.9372 19.3179L13.0587 20.1176L12.1802 19.324L12.1562 19.3022C9.04942 16.479 7 14.6166 7 12.3323C7 10.4662 8.4662 9 10.3323 9C11.3865 9 12.3983 9.49075 13.0587 10.2663ZM13.0589 18.4821L13.1195 18.4215C16.0035 15.8102 17.9059 14.0835 17.9059 12.3325C17.9059 11.1208 16.9971 10.212 15.7853 10.212C14.8523 10.212 13.9435 10.8118 13.6285 11.6419H12.4955C12.1744 10.8118 11.2656 10.212 10.3325 10.212C9.12081 10.212 8.21201 11.1208 8.21201 12.3325C8.21201 14.0835 10.1144 15.8102 12.9984 18.4215L13.0589 18.4821Z" fill="#3BAA90"/>
</svg>
