<svg width="27" height="27" viewBox="0 0 27 27" fill="none" xmlns="http://www.w3.org/2000/svg">
<circle cx="12.9375" cy="12.9375" r="12.9375" fill="#E6F4F2"/>
<path d="M17.3722 10.0244V18H8.73633V10.0244L12.5127 8.25586H13.5958L17.3722 10.0244Z" fill="#3BAA91"/>
<path d="M18.0756 10.7509L17.9245 11.0765C17.9051 11.1199 17.8772 11.159 17.8426 11.1916C17.808 11.2241 17.7672 11.2495 17.7227 11.2663C17.6782 11.283 17.6308 11.2907 17.5833 11.289C17.5358 11.2874 17.4891 11.2763 17.4459 11.2564L17.3722 11.2151L13.0542 9.19283L8.7363 11.2151L8.66253 11.2492C8.61933 11.2691 8.57263 11.2802 8.52512 11.2818C8.47761 11.2835 8.43024 11.2758 8.38574 11.2591C8.34124 11.2423 8.3005 11.217 8.26586 11.1844C8.23123 11.1518 8.20339 11.1127 8.18396 11.0693L8.03284 10.7437C8.013 10.7005 8.00191 10.6538 8.00023 10.6063C7.99854 10.5588 8.00629 10.5114 8.02301 10.4669C8.03974 10.4224 8.06512 10.3816 8.09769 10.347C8.13026 10.3124 8.16936 10.2845 8.21275 10.2651L8.75249 10.0168L12.5145 8.25548L12.9949 8.03059L13.0542 8L13.1154 8.02879L13.594 8.25548L17.3722 10.024L17.9119 10.2723C17.9967 10.3145 18.0614 10.3884 18.092 10.478C18.1227 10.5676 18.1168 10.6656 18.0756 10.7509Z" fill="#3BAA91"/>
<path d="M15.9333 13.7568H13.7744C13.5757 13.7568 13.4146 13.9179 13.4146 14.1167V17.535C13.4146 17.7338 13.5757 17.8949 13.7744 17.8949H15.9333C16.1321 17.8949 16.2932 17.7338 16.2932 17.535V14.1167C16.2932 13.9179 16.1321 13.7568 15.9333 13.7568Z" fill="#F1FCF9"/>
</svg>
