<svg width="27" height="27" viewBox="0 0 27 27" fill="none" xmlns="http://www.w3.org/2000/svg">
<circle cx="12.9375" cy="12.9375" r="12.9375" fill="#E6F4F2"/>
<path d="M14.8691 8H11.1303C10.945 8 10.7955 8.14955 10.7955 8.33482V9.96763H9.98521C9.79994 9.96763 9.65039 10.1172 9.65039 10.3025V17.6652C9.65039 17.8504 9.79994 18 9.98521 18H12.0834V17.5893C12.0834 17.404 12.233 17.2545 12.4182 17.2545H13.5812C13.7665 17.2545 13.916 17.404 13.916 17.5893V18H16.0142C16.1995 18 16.3491 17.8504 16.3491 17.6652V10.3025C16.3491 10.1172 16.1995 9.96763 16.0142 9.96763H15.204V8.33482C15.204 8.14955 15.0544 8 14.8691 8ZM12.0834 16.2522C12.0834 16.4375 11.9339 16.5871 11.7486 16.5871H10.6917C10.5064 16.5871 10.3569 16.4375 10.3569 16.2522V15.9386C10.3569 15.7533 10.5064 15.6038 10.6917 15.6038H11.7486C11.9339 15.6038 12.0834 15.7533 12.0834 15.9386V16.2522ZM12.0834 14.5502C12.0834 14.7355 11.9339 14.885 11.7486 14.885H10.6917C10.5064 14.885 10.3569 14.7355 10.3569 14.5502V14.2366C10.3569 14.0513 10.5064 13.9018 10.6917 13.9018H11.7486C11.9339 13.9018 12.0834 14.0513 12.0834 14.2366V14.5502ZM12.0834 12.8482C12.0834 13.0335 11.9339 13.183 11.7486 13.183H10.6917C10.5064 13.183 10.3569 13.0335 10.3569 12.8482V12.5346C10.3569 12.3493 10.5064 12.1998 10.6917 12.1998H11.7486C11.9339 12.1998 12.0834 12.3493 12.0834 12.5346V12.8482ZM13.9138 11.3248C13.7285 11.3248 13.579 11.1752 13.579 10.99V10.4241H12.4205V10.99C12.4205 11.1752 12.2709 11.3248 12.0857 11.3248H11.8424C11.6571 11.3248 11.5075 11.1752 11.5075 10.99V8.94531C11.5075 8.76004 11.6571 8.61049 11.8424 8.61049H12.0857C12.2709 8.61049 12.4205 8.76004 12.4205 8.94531V9.51116H13.579V8.94531C13.579 8.76004 13.7285 8.61049 13.9138 8.61049H14.1571C14.3424 8.61049 14.4919 8.76004 14.4919 8.94531V10.99C14.4919 11.1752 14.3424 11.3248 14.1571 11.3248H13.9138ZM15.6426 16.2522C15.6426 16.4375 15.493 16.5871 15.3078 16.5871H14.2508C14.0656 16.5871 13.916 16.4375 13.916 16.2522V15.9386C13.916 15.7533 14.0656 15.6038 14.2508 15.6038H15.3078C15.493 15.6038 15.6426 15.7533 15.6426 15.9386V16.2522ZM15.6426 14.5502C15.6426 14.7355 15.493 14.885 15.3078 14.885H14.2508C14.0656 14.885 13.916 14.7355 13.916 14.5502V14.2366C13.916 14.0513 14.0656 13.9018 14.2508 13.9018H15.3078C15.493 13.9018 15.6426 14.0513 15.6426 14.2366V14.5502ZM15.3078 12.1998C15.493 12.1998 15.6426 12.3493 15.6426 12.5346V12.8482C15.6426 13.0335 15.493 13.183 15.3078 13.183H14.2508C14.0656 13.183 13.916 13.0335 13.916 12.8482V12.5346C13.916 12.3493 14.0656 12.1998 14.2508 12.1998H15.3078Z" fill="#3BAA91"/>
</svg>
