<svg width="18" height="18" viewBox="0 0 18 18" fill="none" xmlns="http://www.w3.org/2000/svg">
<g clip-path="url(#clip0_1_10417)">
<path d="M9.00001 16.5C9.98511 16.5013 10.9607 16.3079 11.8709 15.9309C12.781 15.5539 13.6076 15.0007 14.3033 14.3033C15.0007 13.6076 15.5539 12.781 15.9309 11.8709C16.3079 10.9607 16.5013 9.98511 16.5 9.00001C16.5013 8.01491 16.3078 7.03927 15.9308 6.12917C15.5539 5.21906 15.0007 4.39242 14.3033 3.69676C13.6076 2.99927 12.781 2.44613 11.8709 2.06914C10.9607 1.69215 9.98511 1.49873 9.00001 1.50001C8.01491 1.49875 7.03927 1.69218 6.12917 2.06917C5.21906 2.44616 4.39242 2.99928 3.69676 3.69676C2.99928 4.39242 2.44616 5.21906 2.06917 6.12917C1.69218 7.03927 1.49875 8.01491 1.50001 9.00001C1.49873 9.98511 1.69215 10.9607 2.06914 11.8709C2.44613 12.781 2.99927 13.6076 3.69676 14.3033C4.39242 15.0007 5.21906 15.5539 6.12917 15.9308C7.03927 16.3078 8.01491 16.5013 9.00001 16.5Z" fill="#039855" stroke="#039855" stroke-width="4" stroke-linejoin="round"/>
<path fill-rule="evenodd" clip-rule="evenodd" d="M9 13.8751C9.24864 13.8751 9.4871 13.7763 9.66291 13.6005C9.83873 13.4247 9.9375 13.1862 9.9375 12.9376C9.9375 12.6889 9.83873 12.4505 9.66291 12.2746C9.4871 12.0988 9.24864 12.0001 9 12.0001C8.75136 12.0001 8.5129 12.0988 8.33709 12.2746C8.16127 12.4505 8.0625 12.6889 8.0625 12.9376C8.0625 13.1862 8.16127 13.4247 8.33709 13.6005C8.5129 13.7763 8.75136 13.8751 9 13.8751Z" fill="white"/>
<path d="M9 4.5V10.5" stroke="white" stroke-width="3" stroke-linecap="round" stroke-linejoin="round"/>
</g>
<defs>
<clipPath id="clip0_1_10417">
<rect width="18" height="18" fill="white"/>
</clipPath>
</defs>
</svg>
