<svg width="27" height="27" viewBox="0 0 27 27" fill="none" xmlns="http://www.w3.org/2000/svg">
<circle cx="12.9375" cy="12.9375" r="12.9375" fill="#E6F4F2"/>
<g clip-path="url(#clip0_1_42498)">
<path d="M13.9101 9.84473H12.3248C12.1456 9.84473 11.999 9.99132 11.999 10.1705V15.7736C11.999 15.9527 12.1456 16.0993 12.3248 16.0993H13.9101C14.0893 16.0993 14.2359 15.9528 14.2359 15.7736V10.1705C14.2359 9.99134 14.0893 9.84473 13.9101 9.84473ZM13.1174 15.5964C12.7692 15.5964 12.4859 15.3131 12.4859 14.9649C12.4859 14.6167 12.7692 14.3334 13.1174 14.3334C13.4656 14.3334 13.749 14.6167 13.749 14.9649C13.749 15.3131 13.4656 15.5964 13.1174 15.5964ZM13.9427 12.8635C13.9427 12.9829 13.845 13.0806 13.7255 13.0806H12.5094C12.39 13.0806 12.2922 12.9829 12.2922 12.8635V10.6193C12.2922 10.4999 12.39 10.4022 12.5094 10.4022H13.7255C13.845 10.4022 13.9427 10.4999 13.9427 10.6193V12.8635Z" fill="#3BAA90"/>
<path d="M13.2483 11.0834H12.5715C12.5115 11.0834 12.4629 11.0348 12.4629 10.9748C12.4629 10.9149 12.5115 10.8662 12.5715 10.8662H13.2483C13.3083 10.8662 13.3569 10.9149 13.3569 10.9748C13.3569 11.0348 13.3082 11.0834 13.2483 11.0834Z" fill="#3BAA90"/>
<path d="M11.2724 9.84473H9.68709C9.50792 9.84473 9.36133 9.99132 9.36133 10.1705V15.7736C9.36133 15.9527 9.50792 16.0993 9.68709 16.0993H11.2724C11.4516 16.0993 11.5982 15.9528 11.5982 15.7736V10.1705C11.5982 9.99134 11.4516 9.84473 11.2724 9.84473ZM10.4797 15.5964C10.1315 15.5964 9.84821 15.3131 9.84821 14.9649C9.84821 14.6167 10.1315 14.3334 10.4797 14.3334C10.828 14.3334 11.1113 14.6167 11.1113 14.9649C11.1112 15.3131 10.828 15.5964 10.4797 15.5964ZM11.305 12.8635C11.305 12.9829 11.2072 13.0806 11.0878 13.0806H9.87168C9.75224 13.0806 9.65451 12.9829 9.65451 12.8635V10.6193C9.65451 10.4999 9.75224 10.4022 9.87168 10.4022H11.0878C11.2072 10.4022 11.305 10.4999 11.305 10.6193V12.8635Z" fill="#3BAA90"/>
<path d="M10.6101 11.0834H9.9333C9.87333 11.0834 9.82471 11.0348 9.82471 10.9748C9.82471 10.9149 9.87336 10.8662 9.9333 10.8662H10.6101C10.6701 10.8662 10.7187 10.9149 10.7187 10.9748C10.7187 11.0348 10.6701 11.0834 10.6101 11.0834Z" fill="#3BAA90"/>
<path d="M10.6106 11.601H9.93379C9.87382 11.601 9.8252 11.5523 9.8252 11.4924C9.8252 11.4324 9.87384 11.3838 9.93379 11.3838H10.6106C10.6706 11.3838 10.7192 11.4324 10.7192 11.4924C10.7192 11.5523 10.6706 11.601 10.6106 11.601Z" fill="#3BAA90"/>
<path d="M10.6101 12.1166H9.9333C9.87333 12.1166 9.82471 12.068 9.82471 12.008C9.82471 11.9481 9.87336 11.8994 9.9333 11.8994H10.6101C10.6701 11.8994 10.7187 11.9481 10.7187 12.008C10.7187 12.068 10.6701 12.1166 10.6101 12.1166Z" fill="#3BAA90"/>
<path d="M18 17.0893C18 17.2224 17.891 17.3314 17.7578 17.3314H9.24216C9.10897 17.3314 9 17.2224 9 17.0893V16.8769C9 16.7437 9.10897 16.6348 9.24216 16.6348H17.7578C17.891 16.6348 18 16.7437 18 16.8769V17.0893Z" fill="#3BAA90"/>
<g clip-path="url(#clip1_1_42498)">
<path d="M14.7452 13.6843H16.5738C17.1262 13.6843 17.2335 12.9281 17.2379 12.8945L17.4964 11.0252C17.5112 10.9183 17.6098 10.8436 17.7169 10.8583C17.8239 10.8731 17.8987 10.9718 17.8839 11.0788L17.6257 12.9461C17.5756 13.3362 17.2919 14.0733 16.5766 14.0753C16.5497 14.2329 16.4124 14.3534 16.2471 14.3534H16.1007V15.1075H16.58C16.8232 15.1075 17.021 15.3054 17.021 15.5485V15.6221C17.021 15.7301 16.9335 15.8177 16.8255 15.8177C16.7174 15.8177 16.6299 15.7302 16.6299 15.6221V15.5485C16.6299 15.521 16.6075 15.4987 16.58 15.4987H16.1007V15.6262C16.1007 15.7342 16.0132 15.8218 15.9051 15.8218C15.7971 15.8218 15.7095 15.7343 15.7095 15.6262V15.4987H15.2302C15.2028 15.4987 15.1804 15.5211 15.1804 15.5485V15.6221C15.1804 15.7302 15.0928 15.8178 14.9848 15.8178C14.8768 15.8178 14.7892 15.7302 14.7892 15.6221V15.5485C14.7892 15.3054 14.9871 15.1075 15.2302 15.1075H15.7095V14.3534H15.5631C15.3979 14.3534 15.2607 14.233 15.2337 14.0754H14.7451C14.6371 14.0754 14.5495 13.9878 14.5495 13.8798C14.5495 13.7717 14.6372 13.6843 14.7452 13.6843Z" fill="#3BAA90"/>
</g>
</g>
<defs>
<clipPath id="clip0_1_42498">
<rect width="9" height="9" fill="white" transform="translate(9 9)"/>
</clipPath>
<clipPath id="clip1_1_42498">
<rect width="4.9654" height="4.9654" fill="white" transform="matrix(-1 0 0 1 18.7012 10.8564)"/>
</clipPath>
</defs>
</svg>
